<?xml version="1.0" encoding="utf-8"?>
<!-- Generator: Adobe Illustrator 25.0.1, SVG Export Plug-In . SVG Version: 6.00 Build 0)  -->
<svg version="1.1" id="Capa_1" xmlns="http://www.w3.org/2000/svg" xmlns:xlink="http://www.w3.org/1999/xlink" x="0px" y="0px"
	 viewBox="0 0 85 70.5" style="enable-background:new 0 0 85 70.5;" xml:space="preserve">
<style type="text/css">
	.st0{fill:none;}
	.st1{fill:#FFFFFF;}
</style>
<g>
	<polygon class="st0" points="65.9,29.7 65.9,33.9 79.7,28.7 75.4,26.2 	"/>
	<path class="st0" d="M23.6,62.1c-0.4,0-0.8-0.2-1.1-0.5L7.6,47.1l-3,1l19.4,19L46.8,58v-4.4L24.2,62C24,62.1,23.8,62.1,23.6,62.1z"
		/>
	<path class="st0" d="M46.8,41.1v-4.2l-22.6,8.5c-0.2,0.1-0.4,0.1-0.6,0.1c-0.4,0-0.8-0.2-1.1-0.5L7.8,29.6l-3.2,1.1L24,49.6
		L46.8,41.1z"/>
	<path class="st0" d="M28.2,24.6c0.5,1.8,3.8,3.1,8.7,3l-7.7-6.1C28.3,22.7,27.9,23.8,28.2,24.6z"/>
	<path class="st0" d="M57.9,3.4L41.8,8.8l2.7,2.1c8.1-1.2,14.3,0.8,15.4,5c0.5,1.9-0.1,3.9-1.6,5.9l6.3,5L80.2,21L57.9,3.4z
		 M65.1,13.6l-3.2,1.1c-0.2,0.1-0.4,0.1-0.5,0.1c-0.7,0-1.3-0.4-1.5-1.1c-0.3-0.8,0.1-1.7,1-2l3.2-1.1c0.8-0.3,1.7,0.1,2,1
		C66.3,12.4,65.9,13.3,65.1,13.6z"/>
	<path class="st0" d="M74.8,41.5l-8.9,3.3v5.5l13.9-5.6l-4.4-2.5C75.1,42,74.9,41.8,74.8,41.5z"/>
	<polygon class="st0" points="65.9,37.3 65.9,41.4 79.7,36.2 75.5,33.7 	"/>
	<path class="st0" d="M56.8,16.7c-0.5-1.8-3.8-3.1-8.7-3l7.7,6.1C56.7,18.7,57.1,17.6,56.8,16.7z"/>
	<path class="st0" d="M49.9,42.2C49.9,42.2,49.9,42.3,49.9,42.2v1.3l12.8-4.7v-8l-12.8,4.8V42.2z"/>
	<polygon class="st0" points="38.3,10.1 25.4,14.5 48.6,32.8 61.1,28.1 	"/>
	<path class="st0" d="M49.9,56.7l12.8-5.1v-7.9l0,0v-1.3L49.9,47V56.7z"/>
	<path class="st0" d="M23.6,53.1c-0.4,0-0.8-0.2-1.1-0.4l-14.4-14l-3.5,1.2L24,58.7l22.8-8.5v-5.7L24.2,53
		C24,53,23.8,53.1,23.6,53.1z"/>
</g>
<path class="st1" d="M85,36.7c0.1-0.6-0.2-1.2-0.8-1.5l-4.9-2.9l4.7-1.8c0.6-0.2,1-0.7,1-1.3c0.1-0.6-0.2-1.2-0.8-1.5l-5-2.9L84,23
	c0.5-0.2,0.9-0.7,1-1.2c0.1-0.6-0.1-1.1-0.6-1.5l-25.2-20c-0.4-0.3-1-0.4-1.5-0.3L19.8,13c-0.8,0.3-1.3,1.2-1,2s1.2,1.3,2,1l0.9-0.3
	l4.9,3.9c-1.5,2-2.1,4-1.6,5.9c0.9,3.4,5.1,5.3,11,5.3c1.4,0,2.9-0.1,4.4-0.3l4.6,3.7L24,42L4.5,21.6l2.2-0.7c0.8-0.3,1.3-1.2,1-2
	s-1.2-1.3-2-1l-4.5,1.5c-0.5,0.2-0.9,0.6-1,1.1s0,1.1,0.4,1.5l4.9,5.1l-4.3,1.5c-0.5,0.2-0.9,0.6-1,1.2c-0.1,0.5,0,1.1,0.4,1.5
	l5.1,4.9l-4.5,1.5c-0.5,0.2-0.9,0.6-1,1.2c-0.1,0.5,0,1.1,0.4,1.5L5,44.7L1.1,46c-0.5,0.2-0.9,0.6-1,1.2c-0.1,0.5,0,1.1,0.4,1.5
	l22,21.4c0.3,0.3,0.7,0.4,1.1,0.4c0.2,0,0.4,0,0.6-0.1l59.8-24c0.6-0.2,1-0.8,1-1.4c0-0.6-0.3-1.2-0.8-1.5l-5.9-3.4L84,38
	C84.5,37.8,84.9,37.3,85,36.7z M79.7,28.7l-13.8,5.2v-4.2l9.5-3.6L79.7,28.7z M28.2,24.6c-0.2-0.9,0.1-1.9,1-3.1l7.7,6.1
	C31.9,27.8,28.7,26.4,28.2,24.6z M4.6,30.7l3.2-1.1L22.5,45c0.3,0.3,0.7,0.5,1.1,0.5c0.2,0,0.4,0,0.6-0.1l22.6-8.5v4.2L24,49.6
	L4.6,30.7z M46.8,57.9L24,67.1L4.6,48.2l3-1l14.9,14.5c0.3,0.3,0.7,0.5,1.1,0.5c0.2,0,0.4,0,0.6-0.1l22.6-8.5
	C46.8,53.6,46.8,57.9,46.8,57.9z M46.8,50.2L24,58.7L4.6,39.8l3.5-1.2l14.4,14c0.3,0.3,0.7,0.4,1.1,0.4c0.2,0,0.4,0,0.6-0.1
	l22.6-8.5C46.8,44.4,46.8,50.2,46.8,50.2z M25.4,14.5l12.9-4.4l22.9,18.1l-12.5,4.7L25.4,14.5z M48.1,13.8c5-0.2,8.3,1.2,8.7,3
	c0.2,0.9-0.1,1.9-1.1,3.1L48.1,13.8z M62.7,43.6L62.7,43.6v7.9l-12.8,5.1V47l12.8-4.7V43.6z M62.7,38.9l-12.8,4.7v-1.3l0,0v-6.5
	L62.7,31V38.9z M58.3,21.8c1.6-2,2.1-4,1.6-5.9c-1.2-4.2-7.3-6.1-15.4-5l-2.7-2.1l16.1-5.5L80.2,21l-15.6,5.9L58.3,21.8z M79.8,44.7
	l-13.9,5.6v-5.5l8.9-3.3c0.1,0.3,0.4,0.5,0.7,0.7L79.8,44.7z M65.9,41.4v-4.1l9.6-3.6l4.3,2.5L65.9,41.4z"/>
<path class="st1" d="M18.7,30.9c0.2,0,0.4,0,0.5-0.1l3.2-1.1c0.8-0.3,1.3-1.2,1-2s-1.2-1.3-2-1l-3.2,1.1c-0.8,0.3-1.3,1.2-1,2
	C17.5,30.5,18.1,30.9,18.7,30.9z"/>
<path class="st1" d="M66,11.6c-0.3-0.8-1.2-1.3-2-1l-3.2,1.1c-0.8,0.3-1.3,1.2-1,2c0.2,0.7,0.8,1.1,1.5,1.1c0.2,0,0.4,0,0.5-0.1
	l3.2-1.1C65.9,13.3,66.3,12.4,66,11.6z"/>
</svg>
