<?xml version="1.0" encoding="utf-8"?>
<!-- Generator: Adobe Illustrator 21.0.0, SVG Export Plug-In . SVG Version: 6.00 Build 0)  -->
<svg version="1.1" id="Capa_1" xmlns="http://www.w3.org/2000/svg" xmlns:xlink="http://www.w3.org/1999/xlink" x="0px" y="0px"
	 width="47.4px" height="69.5px" viewBox="0 0 47.4 69.5" style="enable-background:new 0 0 47.4 69.5;" xml:space="preserve">
<path d="M23.7,0C23.7,0,23.7,0,23.7,0C10.6,0,0,10.6,0,23.7C0,36,9.3,46.2,21.5,47.3l0.5,0v10.1h-8.8v3.2h8.8v8.8h3.2v-8.8h8.8v-3.2
	h-8.8V47.3l0.5,0C38.1,46.2,47.4,36,47.4,23.7C47.4,10.6,36.8,0,23.7,0z M23.7,44.2C12.4,44.2,3.2,35,3.2,23.7S12.4,3.2,23.7,3.2
	s20.5,9.2,20.5,20.5S35,44.2,23.7,44.2z"/>
</svg>
