<?xml version="1.0" encoding="utf-8"?>
<!-- Generator: Adobe Illustrator 21.0.0, SVG Export Plug-In . SVG Version: 6.00 Build 0)  -->
<svg version="1.1" id="Capa_1" xmlns="http://www.w3.org/2000/svg" xmlns:xlink="http://www.w3.org/1999/xlink" x="0px" y="0px"
	 width="97px" height="51.7px" viewBox="0 0 97 51.7" style="enable-background:new 0 0 97 51.7;" xml:space="preserve">
<circle cx="12.8" cy="24" r="1.7"/>
<circle cx="23.1" cy="24" r="1.7"/>
<path d="M19.8,31.1c-1.1,1-2.6,1-3.7,0c-0.4-0.4-1-0.3-1.4,0.1c-0.4,0.4-0.3,1,0.1,1.4c0.9,0.8,2.1,1.2,3.2,1.2s2.3-0.4,3.2-1.2
	c0.4-0.4,0.4-1,0.1-1.4C20.9,30.7,20.2,30.7,19.8,31.1z"/>
<path d="M80.9,31.1c-1.1,1-2.6,1-3.7,0c-0.4-0.4-1-0.3-1.4,0.1c-0.4,0.4-0.3,1,0.1,1.4c0.9,0.8,2.1,1.2,3.2,1.2
	c1.1,0,2.3-0.4,3.2-1.2c0.4-0.4,0.4-1,0.1-1.4C81.9,30.7,81.3,30.7,80.9,31.1z"/>
<circle cx="43.3" cy="14.3" r="1.7"/>
<circle cx="84.2" cy="24" r="1.7"/>
<circle cx="73.8" cy="24" r="1.7"/>
<circle cx="53.7" cy="14.3" r="1.7"/>
<path d="M50.3,21.4c-1.1,1-2.6,1-3.7,0c-0.4-0.4-1-0.3-1.4,0.1c-0.4,0.4-0.3,1,0.1,1.4c0.9,0.8,2.1,1.2,3.2,1.2
	c1.1,0,2.3-0.4,3.2-1.2c0.4-0.4,0.4-1,0.1-1.4C51.4,21,50.7,21,50.3,21.4z"/>
<path d="M93.4,22.7L93.4,22.7c-0.7-7.3-6.9-13-14.4-13c-7.5,0-13.6,5.7-14.3,13l0,0l-0.6,5l-1.3-12.8c0-0.2,0-0.3,0-0.5
	C62.9,6.5,56.4,0,48.5,0c-7.9,0-14.4,6.5-14.4,14.4c0,0.2,0,0.3,0,0.5l-1.8,18.2c0,0,0,0,0,0.1c-0.7,1.4-1.2,3-1.5,4.6
	c-1-1.1-2.2-2-3.5-2.8c3-2.6,5-6.5,5-10.8c0-6-3.7-11.2-9-13.3v-2c0-2.9-2.4-5.3-5.3-5.3c-2.9,0-5.3,2.4-5.3,5.3v1.9
	C7.4,12.7,3.6,18,3.6,24c0,4.3,1.9,8.2,5,10.8C3.4,38.1,0,43.7,0,50.2c0,0.8,0.7,1.5,1.5,1.5S3,51,3,50.2v0c0-5.9,3.4-10.9,8.3-13.4
	c2,1,4.3,1.6,6.7,1.6s4.7-0.6,6.7-1.6c4.9,2.5,8.3,7.5,8.3,13.4v0c0,0.8,0.7,1.5,1.5,1.5s1.5-0.7,1.5-1.5c0-3.3-0.9-6.3-2.4-9
	c0-6.2,3.4-11.5,8.4-14c2,1,4.2,1.6,6.6,1.6c2.4,0,4.6-0.6,6.6-1.6c4.9,2.6,8.4,7.9,8.4,14c-1.5,2.6-2.4,5.7-2.4,9
	c0,0.8,0.7,1.5,1.5,1.5S64,51,64,50.2v0c0-5.9,3.4-10.9,8.3-13.4c2,1,4.3,1.6,6.7,1.6s4.7-0.6,6.7-1.6c4.9,2.5,8.3,7.5,8.3,13.4v0
	c0,0.8,0.7,1.5,1.5,1.5S97,51,97,50.2c0-2.4-0.5-4.8-1.4-6.9L93.4,22.7z M16.4,8.7c0-0.9,0.8-1.7,1.7-1.7c0.9,0,1.7,0.8,1.7,1.7v1
	c-0.6-0.1-1.2-0.1-1.8-0.1c-0.5,0-1.1,0-1.6,0.1V8.7z M18,12.7c3.9,0,7.4,2,9.4,5c-4.5,0.8-7.1-2.8-7.2-3c-0.3-0.4-0.8-0.7-1.3-0.7
	c-0.5,0-1,0.4-1.2,0.8c-1.4,2.7-6,3-9.1,2.7C10.7,14.6,14.1,12.7,18,12.7z M18,35.4c-6.3,0-11.4-5.1-11.4-11.4
	c0-1.2,0.2-2.4,0.6-3.6c2,0.3,7.3,0.6,10.8-1.7c0.4-0.3,0.8-0.6,1.1-0.9c0.3,0.3,0.7,0.6,1.1,0.9c1.5,1.1,3.6,2,6,2
	c0.8,0,1.7-0.1,2.6-0.3c0.4,1.1,0.6,2.3,0.6,3.6C29.4,30.3,24.2,35.4,18,35.4z M48.5,3c3.9,0,7.4,2,9.4,5c-4.5,0.8-7.1-2.8-7.2-3
	c-0.3-0.4-0.8-0.7-1.3-0.7c-0.5,0-1,0.4-1.2,0.8c-1.4,2.7-6,3-9.1,2.7C41.2,5,44.6,3,48.5,3z M35.8,28l0.6-5.8
	c0.8,1.2,1.7,2.2,2.7,3.1C38,26,36.8,26.9,35.8,28z M48.5,25.8c-6.3,0-11.4-5.1-11.4-11.4c0-1.2,0.2-2.4,0.6-3.6
	c2,0.3,7.3,0.6,10.8-1.7c0.4-0.3,0.8-0.6,1.1-0.9c0.3,0.3,0.7,0.6,1.1,0.9c1.5,1.1,3.6,2,6,2c0.8,0,1.7-0.1,2.6-0.3
	c0.4,1.1,0.6,2.3,0.6,3.6C59.9,20.7,54.8,25.8,48.5,25.8z M57.8,25.3c1-0.9,2-1.9,2.7-3.1l0.6,5.8C60.1,26.9,59,26,57.8,25.3z
	 M79,12.7c3.5,0,6.7,1.6,8.8,4.2h-5.4l-1.6-2.6c-0.3-0.6-1-1-1.7-1c0,0,0,0,0,0c-0.7,0-1.3,0.4-1.7,1l-1.5,2.6h-5.7
	C72.3,14.3,75.5,12.7,79,12.7z M66.1,37.7c0-0.1-0.1-0.2-0.1-0.4l0.7-5.8c0.8,1.3,1.8,2.4,2.9,3.4C68.3,35.7,67.2,36.6,66.1,37.7z
	 M79,35.4c-6.3,0-11.4-5.1-11.4-11.4c0-1.5,0.3-2.9,0.8-4.3h8.3c0.5,0,1-0.3,1.3-0.7l0.4-0.7l0.6-1l0.6,1.1l0.5,0.8
	c0.3,0.5,0.8,0.7,1.3,0.7h8.1c0.5,1.3,0.8,2.7,0.8,4.2C90.4,30.3,85.3,35.4,79,35.4z M88.4,34.9c1.1-1,2.1-2.1,2.9-3.4l0.7,6.3
	C90.9,36.7,89.7,35.7,88.4,34.9z"/>
</svg>
